<?xml version="1.0" encoding="UTF-8"?>
<svg xmlns="http://www.w3.org/2000/svg" width="600" height="600" viewBox="-1.5 -1.5 603 603">
	<use href="#roundel" stroke="white" stroke-width="3" />
	<path id="roundel" d="M300,0C134.4,0,0,134.4,0,300s134.4,300,300,300s300-134.4,300-300S465.6,0,300,0Z
		M285.84183,24.87248c.16879-.00856.34134.00824.51019,0l1.27551,20.34438c-17.30331.82497-34.14465,3.34834-50.38266,7.46175l5.0383,19.8342c-42.62195,10.79591-80.58542,33.24139-110.33163,63.7755l-14.60461-14.28571c-11.8782,12.18597-22.49774,25.57176-31.76016,39.92348l-17.09186-11.2883C115.17587,78.46048,194.69028,29.49789,285.84183,24.87248Z
		M313.64795,24.87248c91.36349,4.46928,171.08975,53.45432,217.85715,125.76529l-17.09186,11.2883c-9.24158-14.31558-19.85138-27.69925-31.69641-39.85971l-14.60455,14.22194c-29.75092-30.5504-67.75861-52.97585-110.39545-63.7755l5.03827-19.8342c-16.23798-4.1134-33.07928-6.63678-50.38266-7.46175Z
		M300,114.79594c8.67346-.01988,17.34695.51019,24.48981,1.53064l-11.16071,92.85715c23.45944,3.4209,44.02786,15.69879,58.22702,33.35458l74.48981-55.86737c9.0481,11.27179,19.30573,28.95474,24.68109,42.34695l-85.58673,36.60712c4.30194,10.62848,6.69647,22.20999,6.69647,34.37503,0,11.7196-2.17877,22.9187-6.18628,33.22705l84.88525,36.28827c-5.23761,13.47174-15.38824,31.12314-24.29846,42.47446l-73.97961-55.35712c-14.1803,18.05908-34.98425,30.66998-58.73727,34.18365l10.96942,91.32654c-14.28571,2.20001-34.69388,2.1684-48.97961.12756l10.96939-91.4541c-23.77014-3.5162-44.55624-16.16742-58.73724-34.24744l-73.78824,55.35712c-9.0481-11.27179-19.30573-28.95474-24.68115-42.34692l85.07654-36.4158c-3.99384-10.29306-6.18622-21.46466-6.18622-33.16327,0-12.18604,2.38037-23.79538,6.69641-34.43878l-85.39539-36.47961c5.23758-13.47174,15.38818-31.12314,24.29846-42.47449l74.68112,55.93115c14.19916-17.65579,34.76758-29.93369,58.22705-33.35458l-11.16074-92.72963c7.14288-1.09998,15.81635-1.63826,24.48981-1.65816Z
		M54.84695,174.23476l18.36734,9.05609c-7.74675,15.01834-14.08055,30.87463-18.75,47.44897l19.64285,5.54849c-5.71048,20.26526-8.80103,41.62811-8.80103,63.71173,0,22.10504,3.07982,43.49277,8.80103,63.77548l-19.64285,5.54849c4.66623,16.54767,11.01277,32.38998,18.75,47.38522l-18.36734,9.05609c-19.39819-37.71133-30.35715-80.46448-30.35715-125.76529S35.44875,211.94609,54.84695,174.23476Z
		M545.15305,174.23476c19.39819,37.71133,30.35712,80.46445,30.35712,125.76529s-10.95892,88.05396-30.35712,125.76529l-18.36731-9.05609c7.74048-14.99969,14.08221-30.83215,18.75-47.38522l-19.64288-5.54849c5.72119-20.28271,8.80103-41.67044,8.80103-63.77548,0-22.08362-3.09052-43.44647-8.80103-63.71173l19.64288-5.54849c-4.66815-16.5697-11.00647-32.43423-18.75-47.44897Z
		M85.58676,438.07405c9.26596,14.35144,19.88144,27.73694,31.76016,39.92346l14.60461-14.28571c29.74622,30.53406,67.70969,52.97955,110.33163,63.77551l-5.0383,19.83417c16.23801,4.11334,33.07935,6.63678,50.38266,7.46173l-1.27551,20.34436c-91.36343-4.4693-171.08972-53.45435-217.85712-125.76526Z
		M514.47702,438.07405l17.02808,11.28827c-46.7674,72.31091-126.49365,121.29596-217.85715,125.76526l-1.27551-20.34436c17.30338-.82495,34.14468-3.34839,50.38266-7.46173l-5.03827-19.83417c42.63684-10.79974,80.64453-33.22516,110.39545-63.77551l14.60455,14.22192c11.85986-12.17566,22.50732-25.52478,31.76019-39.85968Z" />
</svg>